<?xml version="1.0" encoding="utf-8"?>
<!-- Generator: Adobe Illustrator 16.0.0, SVG Export Plug-In . SVG Version: 6.00 Build 0)  -->
<!DOCTYPE svg PUBLIC "-//W3C//DTD SVG 1.1//EN" "http://www.w3.org/Graphics/SVG/1.1/DTD/svg11.dtd">
<svg version="1.1" id="Layer_1" xmlns="http://www.w3.org/2000/svg" xmlns:xlink="http://www.w3.org/1999/xlink" x="0px" y="0px"
	 width="442.333px" height="81.5px" viewBox="0 0 442.333 81.5" enable-background="new 0 0 442.333 81.5" xml:space="preserve">
<path fill-rule="evenodd" clip-rule="evenodd" fill="#FFFFFF" d="M51.076,16.088c0.08-1.473,0.481-3.059,1.081-4.407
	c1.499-3.368,5.05-4.465,8.283-2.803c2.063,1.061,2.74,2.545,2.101,4.864c-1.002,3.639-2.947,6.631-6.319,8.481
	c-2.855,1.567-4.179,0.914-4.872-2.326c-0.207-0.965-0.204-1.97-0.27-2.95C51.061,16.66,51.061,16.374,51.076,16.088z"/>
<path fill-rule="evenodd" clip-rule="evenodd" fill="#FFFFFF" d="M441.062,44.75c-1.041-0.467-6.529,4.484-8.095,5.984
	c-0.764,0.732-1.558,1.43-2.433,2.027c-0.484,0.331-0.696,0.557-1.223,0.816c-0.173,0.086-0.609,0.375-1.047,0.578
	c-0.788,0.41,0.048-4.072,0.332-5.803c0.59-3.594,1.444-7.182,1.605-10.799c0.223-5.001-2.424-7.644-7.35-8.232
	c-3.635-0.436-6.854,0.624-9.73,2.935c-0.635-0.924-0.948-1.515-1.385-1.992c-2.721-2.985-4.385-2.87-6.594,0.561
	c-2.095,3.255-2.057,8.44-3.145,12.166c-0.36,1.234-0.646,2.493-1.042,3.717c-0.395,1.219-0.725,2.155-1.416,3.084
	c-0.72,0.967-0.874,1.194-1.744,1.886c-0.966,0.767-1.48,1.417-2.485,2.135c-0.287,0.205-0.581,0.399-0.886,0.578
	c-0.459,0.27-1.05,0.346-1.499,0.049c-0.62-0.41-0.58-1.637-0.428-2.252c0.307-1.236,0.377-1.67,0.708-2.896
	c0.457-1.69,0.663-3.438,1.04-5.146c0.348-1.575,0.52-3.321,1.961-4.276c0.79-0.523,1.84-0.976,2.354-1.826
	c1.232-2.042,1.14-5.561-0.646-7.294c-1.806-1.753-4.519-2.111-6.874-1.534c-1.211,0.297-2.445,0.549-3.598,1.039
	c-1.125,0.477-2.039,1.295-3.139,1.813c-1.072,0.506-2.521,0.935-3.621,0.261c-0.723-0.443-1.104-1.364-1.311-2.151
	c-0.557-2.124-0.094-3.874-2.533-3.979c-2.2-0.094-4.459-0.246-5.861,1.883c-1.409,2.139-1.489,4.479,0.133,6.503
	c1.351,1.686,1.41,2.775,1.012,5.165c-0.189,1.136-0.694,2.158-1,3.281c-1.62,5.944-8.268,10.994-14.265,11.146
	c-1.895,0.047-4.052-0.451-5.667-1.412c-2.721-1.615-2.312-4.293,0.618-5.525c1.839-0.775,3.803-1.275,5.587-2.148
	c1.928-0.945,3.911-1.951,5.514-3.341c2.515-2.181,2.974-5.225,1.946-8.255c-1.034-3.054-3.615-4.376-6.698-4.144
	c-2.439,0.185-4.999,0.542-7.223,1.487c-5.999,2.551-9.271,7.661-10.557,13.721c-1.084,5.115-4.785,7.086-9.133,10.162
	c-0.349-2.775-0.909-4.709-0.761-6.586c0.288-3.637,1.038-7.236,1.479-10.865c0.549-4.521,2.216-9.617,4.033-13.897
	c1.33-3.133,4.288-12.441,4.526-14.853c0.13-1.316-0.63-2.929-1.443-4.089c-2.104-2.997-4.235-3.068-6.324-0.128
	c-1.329,1.871-2.349,4.032-3.139,6.198c-0.965,2.644-3.812,14.577-4.484,17.319c-0.396,1.613-1.128,2.112-2.84,1.758
	c-3.348-0.693-6.579-0.213-9.704,1.332c-5.888,2.911-9.959,7.452-11.246,13.828c-0.873,4.328-3.891,6.395-6.871,8.73
	c-0.933,0.73-2.131,0.021-1.943-1.127c0.268-1.637,0.834-3.221,1.129-4.854c0.59-3.262,1.403-6.527,1.54-9.814
	c0.214-5.132-2.626-8.247-7.825-8.243c-3.191,0.002-6.383,1.153-9.936,1.861c-0.055-0.079-0.262-0.361-0.492-0.628
	c-3.043-3.532-4.895-3.441-7.166,0.486c-2.016,3.483-3.29,7.202-3.816,11.254c-0.834,6.431-7.374,11.99-13.897,11.777
	c-1.86-0.062-3.878-0.883-5.474-1.902c-1.727-1.104-2.076-4.064,0.893-5.004c1.9-0.604,3.832-1.217,5.586-2.141
	c2.182-1.146,4.453-2.343,6.213-4.015c2.234-2.124,2.467-5.062,1.349-7.896c-1.109-2.812-3.508-3.786-6.388-3.948
	c-4.602-0.26-8.463,1.369-11.824,4.401c-3.744,3.378-5.957,7.715-6.667,12.555c-0.646,4.406-3.38,6.203-7.046,7.344
	c-4.063,1.262-6.674-0.324-7.82-4.482c-0.715-2.596-0.548-4.928,1.34-6.993c1.573-1.72,3.16-3.431,4.656-5.216
	c3.418-4.08,8.147-11.575,10.74-17.325c1.189-2.638,2.964-7.835,2.636-10.806c-0.294-2.668-1.98-4.783-4.637-5.081
	c-1.768-0.198-3.676-0.014-5.4,0.451c-3.822,1.032-6.78,3.403-9.16,6.567c-5.367,7.134-8.994,23.085-9.806,31.847
	c-0.24,2.591-0.58,4.943-2.721,6.681c-1.679,1.363-3.29,2.812-5.004,4.127c-1.313,1.008-2.167,0.488-2.415-1.059
	c-0.883-5.506-0.834-10.926,2.091-15.905c1.263-2.149,0.617-3.812-0.891-5.359c-1.533-1.573-3.452-3.414-5.584-2.146
	c-1.859,1.104-3.316,0.758-5.111,0.571c-1.788-0.187-3.701-0.11-5.44,0.325c-8.044,2.012-12.905,7.412-14.863,15.245
	c-0.889,3.557-2.888,5.955-5.666,7.863c-3.083,2.117-5.6,1.57-7.688-1.52c-0.714-1.057-1.098-2.336-1.607-3.459
	c2.774-1.295,5.454-2.24,7.803-3.713c3.586-2.25,4.786-5.811,3.666-9.48c-1.05-3.438-3.798-5.171-8.084-5.455
	c-4.217-0.28-7.274,1.839-10.104,4.713c-1.291-2.478,3.468-13.691,4.481-15.334c1.221-1.979,2.685-3.841,3.661-5.933
	c1.432-3.067,1.214-6.159-0.906-8.954c-2.178-2.87-4.303-2.906-6.279,0.086c-1.184,1.792-2.343,3.723-2.94,5.758
	c-2.15,7.322-7.948,24.298-9.089,31.794c-0.33,2.166-0.938,4.245-2.304,5.996c-1.291,1.655-2.549,3.032-4.201,4.304
	c-0.958,0.738-2.851,2.213-4.147,2.281c-1.083,0.057-1.213-1.275-1.291-2.092c-0.285-2.979,0.216-5.961,0.626-8.906
	c0.427-3.068,0.914-6.127,1.338-9.196c0.447-3.234,2.308-7.886,3.745-10.737c2.104-4.171,6.886-14.706,4.225-18.684
	c-2.315-3.46-4.616-3.625-6.972-0.297c-0.947,1.339-1.68,2.885-2.233,4.436c-1.059,2.971-5.308,15.659-6.034,18.722
	c-0.472,1.987-1.003,2.866-3.317,2.335c-3.523-0.81-6.926-0.031-10.12,1.715c-5.41,2.958-9.142,7.397-10.46,13.342
	c-0.891,4.016-3.388,6.344-6.361,8.529c-0.464,0.342-1.334,0.654-1.719,0.441c-0.429-0.236-0.776-1.121-0.71-1.668
	c0.28-2.307,0.797-4.584,1.1-6.889c0.561-4.276,1.249-8.552,1.471-12.849c0.162-3.148-0.968-3.9-3.896-3.489
	c-4.547,0.638-5.035,1.45-5.406,6.074c-0.33,4.113-0.944,8.245-1.93,12.247c-0.536,2.176-1.93,4.223-3.267,6.092
	c-0.991,1.387-2.607,2.096-4.43,1.289c-1.954-0.865-1.931-2.445-1.52-4.205c0.984-4.207,2.027-8.404,2.835-12.645
	c0.3-1.574,0.245-3.309-0.064-4.888c-0.607-3.092-1.41-3.716-4.354-3.58c-3.488,0.161-4.964,0.333-5.354,3.747
	c-0.339,2.973-0.708,5.942-1.038,8.916c-0.724,6.532-5.338,9.758-10.556,12.479c-0.002,0.014-0.004,0.029-0.006,0.043l-0.026-0.025
	c0.011-0.006,0.021-0.012,0.032-0.018c0.212-1.443,0.338-2.908,0.659-4.328c0.915-4.051,1.816-8.11,2.908-12.115
	c0.779-2.858,0.02-5.249-1.645-7.492c-2.296-3.093-4.93-2.888-6.3,0.661c-1.315,3.407-2.594,6.884-3.333,10.445
	c-1.102,5.317-4.798,8.663-8.509,11.913c-2.784,2.438-10.253,1.199-12.339-1.646c-0.354-0.482-0.474-1.24-0.466-1.867
	c0.045-3.664,0.003-7.339,0.293-10.987c0.348-4.377,0.883-12.417,3.133-12.542c3.76-0.209,9.498,0.056,12.562-2.062
	c4.027-2.783,5.697-6.635,5.292-11.53c-0.27-3.264-1.853-5.857-5-6.835c-6.489-2.018-11.389-1.268-16.611,4.597
	c-2.058,2.311-1.564,1.835-3.043,4.617c-1.532,2.883-2.689,4.087-5.948,2.996c-1.131-0.38-5.447-2.399-6.028-1.034
	c-0.344,0.808,0.246,2.122,0.664,3.103c0.231,0.544,5.415,3.246,5.985,3.567c2.023,1.137,1.492,1.722,1.167,3.958
	c-0.501,3.449-2.205,15.085-2.515,18.561c-0.126,1.414-0.729,2.008-2.171,2.109c-2.135,0.152-4.354,0.217-6.357,0.869
	c-3.418,1.115-4.42,2.871-4.373,6.4c0.048,3.568,1.568,5.701,4.69,6.852c3.384,1.248,6.818,0.879,9.62-0.934
	c3.485-2.254,6.386-2.15,10.056-0.453c4.302,1.988,8.784,1.195,12.888-1.27c0.757-0.453,1.567-0.822,3.393-1.771
	c-0.856,1.746-1.012,2.719-1.538,3.002c-1.154,0.621-2.508,0.857-3.758,1.312c-2.967,1.08-6.081,1.895-8.844,3.367
	c-4.97,2.646-5.4,8.396-1.158,11.998c5.737,4.871,15.921,2.959,19.358-3.746c1.131-2.207,1.744-4.674,2.77-6.941
	c0.512-1.133,1.218-2.369,2.19-3.064c3.221-2.297,6.603-4.371,10.056-6.615c2.469,3.221,5.827,4.639,9.874,4.928
	c4.252,0.303,7.162-1.969,9.86-4.779c3.604,5.428,4.663,5.744,10.3,2.977c2.345-1.152,4.605-2.48,7.044-3.803
	c2.369,3.832,5.768,5.723,10.367,5.717c4.591-0.004,8.172-2.066,11.437-5.201c0.541,0.846,0.877,1.41,1.252,1.949
	c2.151,3.102,3.12,3.629,6.65,2.43c2.477-0.844,4.785-2.229,7.084-3.521c1.064-0.6,1.927-1.559,3.045-2.492
	c0.307,1.846,0.441,3.338,0.823,4.766c0.428,1.598,1.549,2.533,3.288,2.49c3.409-0.084,5.962-2.475,6.129-5.92
	c0.126-2.592,0.025-5.193,0.025-7.789c2.408,2.918,3.948,6.043,5.9,8.885c2.914,4.238,6.622,5.285,11.31,3.188
	c2.354-1.055,4.439-2.713,6.652-4.1c5.698,7.562,15.671,6.867,21.824-0.041c0.13,0.102,0.299,0.178,0.384,0.311
	c0.27,0.418,0.506,0.859,0.759,1.289c2.163,3.68,3.105,3.947,7.302,2.883c4.246-1.078,7.198-4.004,10.417-7.027
	c1.889,3.266,4.274,5.662,7.796,6.783c5.334,1.699,10.23,0.963,14.564-2.557c1.59-1.293,2.569-1.436,4.115,0.141
	c1.217,1.24,2.966,2.428,4.621,2.668c3.237,0.475,6.604,0.586,9.863,0.273c4.713-0.453,8.661-2.889,12.19-6.219
	c0.388,1.963,0.569,3.625,1.061,5.188c0.581,1.846,1.753,2.533,3.854,1.863c5.214-1.666,6.263-3.193,5.194-8.357
	c-0.102-0.488-0.344-0.951-0.403-1.441c-0.712-5.91,1.77-10.637,5.575-14.85c0.316-0.351,0.818-0.565,1.27-0.76
	c2.516-1.088,4.415,0.167,4.211,2.895c-0.111,1.48-0.612,2.928-0.857,4.403c-0.676,4.076-1.803,8.096-0.77,12.318
	c1.205,4.916,3.743,6.422,8.334,4.398c2.97-1.309,5.789-2.961,8.646-4.443c6.033,7.516,12.94,7.674,21.756,0.574
	c0.306,0.367,0.649,0.709,0.911,1.104c2.659,4.031,3.722,4.557,8.199,2.771c2.859-1.141,5.469-2.912,8.211-4.41
	c5.592,7.625,19.259,6.75,29.708-1.737c0.339,1.652-0.182,4.087,0.251,5.665c0.536,1.957,1.938,2.51,3.865,2.154
	c3.683-0.678,5.117-2.445,4.728-6.184c-0.435-4.172-0.366-8.287,0.698-12.379c0.932-3.579,4.147-4.446,7.487-4.194
	c0.618,0.047,0.779,0.837,0.928,1.562c0.625,3.042-0.606,4.94-1.544,7.354c-0.33,0.853-0.479,1.769-0.682,2.656
	c-0.246,1.08-0.495,2.182-0.545,3.291c-0.085,1.889,0.22,3.977,1.553,5.43c1.358,1.482,3.798,1.475,5.648,1.234
	c1.761-0.229,3.276-1.539,4.809-2.49c1.031-0.641,2.618-2.291,3.678-3.193c1.633,6.855,3.425,8.506,8.421,4.639
	c2.247-1.74,1.778-3.822,1.082-5.828c-2.146-6.186-0.301-9.678,2.789-14.468c0.43-0.666,2.391-2.483,3.092-2.898
	c1.171-0.691,2.591-1.317,3.66-0.133c0.688,0.761,0.841,2.304,0.789,3.323c-0.083,1.634-0.569,2.965-0.697,4.604
	c-0.31,3.965-0.783,7.975-0.479,11.912c0.323,4.199,3.627,5.898,7.575,4.283c2.455-1.006,4.901-2.154,7.112-3.604
	C437.667,55.354,444.162,47.971,441.062,44.75z M352.893,36.392c0.597-0.486,2.236-0.892,3.02-0.512
	c1.379,0.667,0.812,2.209,0.032,2.975c-1.511,1.482-3.845,3.097-5.522,4.411c-0.328,0.281-0.609-0.244-0.442-1.304
	C350.312,39.208,351.354,37.646,352.893,36.392z M249.049,36.126c0.672-0.432,2.16-0.588,2.575-0.172
	c0.505,0.506,0.7,2.145,0.278,2.603c-1.4,1.521-3.871,3.128-5.48,4.458c-0.188-0.4-0.234-0.859-0.136-1.355
	C246.79,39.616,247.068,37.397,249.049,36.126z M228.288,12.082c0.782-0.854,2.21-1.389,3.426-0.947
	c0.65,1.575,0.389,3.258-0.105,4.437c-1.103,2.635-2.509,5.131-4.043,7.41c-2.604,3.865-5.4,7.521-9.171,12.719
	C220.476,25.48,223.021,17.834,228.288,12.082z M30.122,13.203c2.106-1.837,4.462-2.039,5.806-0.58
	c1.336,1.45,1.003,3.978-0.946,5.759c-2.5,2.285-4.901,1.163-8.63,1.381C26.948,16.134,27.502,15.489,30.122,13.203z M9.673,57.27
	c-1.15,0.307-2.5-0.088-2.401-1.566c0.04-0.596,1.201-1.479,1.938-1.576c0.927-0.123,1.942,0.426,3.924,0.949
	C12.125,56.766,10.613,57.02,9.673,57.27z M35.442,73.721c-0.445,0.588-1.32,1.027-2.07,1.172c-1.403,0.268-4.292-1.52-3.891-2.289
	c0.51-0.979,1.748-1.652,2.792-2.25c0.838-0.48,1.849-0.668,2.792-0.959c0.786-0.242,1.583-0.447,3.741-1.051
	C37.305,70.787,36.486,72.34,35.442,73.721z M118.217,47.426c-0.536,3.254-2.409,5.768-5.699,6.973
	c-3.319,1.215-5.853,0.004-5.996-3.502c-0.104-2.547,0.457-5.332,1.492-7.668c2.126-4.797,6.198-7.458,11.602-9.019
	C119.139,38.944,118.909,43.223,118.217,47.426z M148.595,45.018c1.176-3.229,2.654-5.716,5.111-7.491
	c1.286-0.93,2.87-1.275,4.024,0.059c1.129,1.306,0.665,2.791-0.446,4C155.029,44.039,152.073,44.639,148.595,45.018z M192.33,46.904
	c-0.372,3.195-2.151,5.57-4.841,7.16c-3.743,2.211-7.242,0.309-7.067-4.072c0.103-2.561,0.855-5.285,2.032-7.567
	c2.22-4.305,5.995-6.877,11.176-8.042C193.156,38.996,192.79,42.956,192.33,46.904z M321.985,48.168
	c-0.477,2.631-2.264,4.766-4.84,5.992c-3.788,1.805-6.601,0.221-6.811-4.033c-0.177-3.592,0.949-6.861,3.225-9.687
	c2.436-3.026,4.554-4.359,9.907-5.995C322.969,39.373,322.772,43.824,321.985,48.168z"/>
<path fill-rule="evenodd" clip-rule="evenodd" fill="#323232" d="M52.218,54.252l-0.026-0.025L52.218,54.252z"/>
</svg>
