<?xml version="1.0" encoding="utf-8"?>
<!-- Generator: Adobe Illustrator 16.0.0, SVG Export Plug-In . SVG Version: 6.00 Build 0)  -->
<!DOCTYPE svg PUBLIC "-//W3C//DTD SVG 1.1//EN" "http://www.w3.org/Graphics/SVG/1.1/DTD/svg11.dtd">
<svg version="1.1" id="Layer_1" xmlns="http://www.w3.org/2000/svg" xmlns:xlink="http://www.w3.org/1999/xlink" x="0px" y="0px"
	 width="442.332px" height="81.5px" viewBox="0 0 442.332 81.5" enable-background="new 0 0 442.332 81.5" xml:space="preserve">
<path fill="#FFFFFF" d="M52.076,16.088c0.079-1.473,0.48-3.059,1.081-4.407c1.498-3.368,5.05-4.465,8.282-2.803
	c2.063,1.061,2.74,2.545,2.102,4.864c-1.002,3.639-2.947,6.631-6.319,8.481c-2.854,1.567-4.179,0.914-4.872-2.326
	c-0.207-0.965-0.204-1.97-0.27-2.95C52.061,16.66,52.061,16.374,52.076,16.088z"/>
<path fill="#100811" d="M9.673,57.27c-1.15,0.308-2.5-0.088-2.401-1.565c0.04-0.597,1.201-1.479,1.938-1.576
	c0.927-0.123,1.941,0.427,3.924,0.949C12.125,56.766,10.613,57.02,9.673,57.27z"/>
<path fill="#100811" d="M9.21,54.128c-0.737,0.097-1.898,0.979-1.938,1.576c-0.099,1.478,1.251,1.873,2.401,1.565
	c0.939-0.25,2.452-0.504,3.461-2.192C11.152,54.555,10.137,54.005,9.21,54.128z"/>
<path fill="#323232" d="M52.218,54.252l-0.026-0.025L52.218,54.252z"/>
<path fill-rule="evenodd" clip-rule="evenodd" fill="#FFFFFF" d="M438.879,46.777c-1.434-0.976-2.305,0.745-3.233,1.576
	c-1.364,1.222-2.588,2.6-3.957,3.815c-0.827,0.735-1.763,1.915-2.985,1.073c-0.92-0.632-0.427-1.863-0.235-2.812
	c0.66-3.258,1.707-6.473,2.023-9.76c0.917-9.544-5.265-14.013-14.088-10.191c-2.049,0.888-3.238,1.493-4.932-0.727
	c-2.076-2.724-4.315-1.737-5.971,0.878c-2.075,3.277-3.823,6.812-3.972,10.662c-0.188,4.865-2.744,8.034-6.218,10.829
	c-0.869,0.699-1.68,2.05-2.933,1.368c-1.327-0.724-0.522-2.064-0.232-3.139c1-3.696,2.076-7.372,3.035-11.079
	c0.703-2.716-0.485-4.963-2.316-6.756c-1.727-1.689-3.414-0.045-5.035,0.584c-3.407,1.322-6.357,2.383-6.875-3.172
	c-0.387-4.148-3.9-4.175-6.927-3.527c-3.373,0.722-5.22,3.976-3.472,6.396c3.273,4.532,0.637,8.292-0.333,12.188
	c-0.233,0.939-0.854,1.953-1.395,2.743c-0.675,0.987-1.515,1.854-2.406,2.646c-2.24,1.992-4.824,3.633-7.899,3.777
	c-2.193,0.103-4.425-0.254-6.334-1.388c-2.721-1.615-2.312-4.293,0.618-5.525c1.839-0.775,3.803-1.275,5.587-2.148
	c1.928-0.945,3.911-1.951,5.514-3.341c2.516-2.181,2.975-5.225,1.946-8.255c-1.034-3.054-3.615-4.376-6.698-4.144
	c-2.438,0.185-4.999,0.542-7.223,1.487c-5.999,2.551-9.271,7.661-10.557,13.722c-1.084,5.114-4.785,7.086-9.133,10.162
	c-0.35-2.775-0.909-4.709-0.762-6.587c0.288-3.637,1.038-7.236,1.479-10.865c0.549-4.521,2.216-9.617,4.033-13.897
	c1.329-3.133,4.287-12.441,4.525-14.853c0.13-1.316-0.63-2.929-1.442-4.089c-2.104-2.997-4.235-3.068-6.324-0.128
	c-1.329,1.871-2.35,4.032-3.14,6.198c-0.965,2.644-3.812,14.577-4.483,17.319c-0.396,1.613-1.128,2.112-2.84,1.758
	c-3.349-0.693-6.579-0.213-9.704,1.332c-5.889,2.911-9.959,7.452-11.246,13.828c-0.873,4.327-3.891,6.395-6.871,8.729
	c-0.933,0.73-2.131,0.021-1.942-1.127c0.268-1.637,0.834-3.221,1.129-4.854c0.59-3.262,1.402-6.527,1.54-9.814
	c0.214-5.132-2.626-8.247-7.825-8.243c-3.191,0.002-6.383,1.153-9.937,1.861c-0.055-0.079-0.262-0.361-0.492-0.628
	c-3.043-3.532-4.895-3.441-7.165,0.486c-2.017,3.483-3.29,7.202-3.816,11.254c-0.834,6.431-7.374,11.99-13.897,11.777
	c-1.859-0.062-3.878-0.884-5.474-1.902c-1.727-1.104-2.076-4.064,0.893-5.004c1.9-0.604,3.832-1.217,5.587-2.142
	c2.182-1.146,4.452-2.343,6.213-4.015c2.233-2.124,2.467-5.062,1.349-7.896c-1.109-2.812-3.508-3.786-6.388-3.948
	c-4.603-0.26-8.463,1.369-11.824,4.401c-3.744,3.378-5.957,7.715-6.667,12.555c-0.646,4.406-3.38,6.203-7.046,7.345
	c-4.063,1.262-6.674-0.324-7.82-4.482c-0.715-2.596-0.548-4.928,1.34-6.993c1.573-1.72,3.16-3.431,4.656-5.216
	c3.418-4.08,8.147-11.575,10.74-17.325c1.188-2.638,2.964-7.835,2.636-10.806c-0.294-2.668-1.979-4.783-4.637-5.081
	c-1.769-0.198-3.676-0.014-5.4,0.451c-3.822,1.032-6.78,3.403-9.16,6.567c-5.366,7.134-8.994,23.085-9.806,31.847
	c-0.24,2.591-0.58,4.943-2.721,6.681c-1.68,1.363-3.29,2.812-5.004,4.127c-1.313,1.009-2.167,0.488-2.415-1.059
	c-0.884-5.507-0.834-10.927,2.091-15.905c1.263-2.149,0.617-3.812-0.892-5.359c-1.532-1.573-3.451-3.414-5.584-2.146
	c-1.858,1.104-3.315,0.758-5.11,0.571c-1.788-0.188-3.701-0.11-5.44,0.325c-8.044,2.012-12.905,7.412-14.863,15.246
	c-0.889,3.557-2.888,5.955-5.665,7.862c-3.083,2.117-5.601,1.57-7.688-1.521c-0.714-1.057-1.098-2.336-1.607-3.459
	c2.774-1.295,5.454-2.239,7.804-3.713c3.586-2.25,4.786-5.811,3.666-9.479c-1.051-3.438-3.798-5.171-8.084-5.455
	c-4.218-0.28-7.274,1.839-10.104,4.713c-1.291-2.478,3.468-13.691,4.481-15.334c1.221-1.979,2.685-3.841,3.661-5.933
	c1.432-3.067,1.214-6.159-0.906-8.954c-2.178-2.87-4.303-2.906-6.279,0.086c-1.184,1.792-2.343,3.723-2.939,5.758
	c-2.15,7.322-7.948,24.298-9.09,31.794c-0.33,2.166-0.938,4.245-2.304,5.996c-1.291,1.655-2.549,3.032-4.201,4.305
	c-0.958,0.737-2.851,2.213-4.146,2.28c-1.083,0.058-1.213-1.274-1.291-2.092c-0.285-2.979,0.216-5.961,0.626-8.906
	c0.427-3.068,0.914-6.127,1.338-9.196c0.447-3.234,2.308-7.886,3.745-10.737c2.104-4.171,6.886-14.706,4.225-18.684
	c-2.314-3.46-4.616-3.625-6.972-0.297c-0.947,1.339-1.68,2.885-2.233,4.436c-1.059,2.971-5.308,15.659-6.034,18.722
	c-0.472,1.987-1.003,2.866-3.316,2.335c-3.523-0.81-6.926-0.031-10.12,1.715c-5.41,2.958-9.142,7.397-10.46,13.342
	c-0.891,4.017-3.388,6.344-6.361,8.529c-0.464,0.342-1.334,0.654-1.719,0.441c-0.429-0.236-0.776-1.121-0.71-1.668
	c0.28-2.307,0.797-4.584,1.1-6.889c0.562-4.276,1.249-8.553,1.472-12.85c0.162-3.148-0.969-3.9-3.896-3.489
	c-4.547,0.638-5.035,1.45-5.406,6.074c-0.329,4.113-0.943,8.245-1.93,12.247c-0.536,2.176-1.93,4.223-3.267,6.092
	c-0.991,1.387-2.607,2.096-4.431,1.289c-1.954-0.865-1.931-2.445-1.52-4.205c0.984-4.207,2.027-8.404,2.835-12.645
	c0.3-1.574,0.245-3.309-0.064-4.888c-0.606-3.092-1.409-3.716-4.354-3.58c-3.488,0.161-4.964,0.333-5.354,3.747
	c-0.339,2.973-0.708,5.942-1.038,8.917c-0.724,6.531-5.338,9.758-10.556,12.479c-0.002,0.014-0.004,0.029-0.006,0.043l-0.026-0.025
	c0.012-0.006,0.021-0.012,0.032-0.018c0.212-1.443,0.338-2.908,0.659-4.328c0.915-4.051,1.816-8.109,2.908-12.115
	c0.778-2.858,0.02-5.249-1.646-7.492c-2.296-3.093-4.93-2.888-6.3,0.661c-1.314,3.407-2.594,6.884-3.333,10.445
	c-1.102,5.317-4.798,8.663-8.509,11.913c-2.784,2.438-10.253,1.199-12.339-1.646c-0.354-0.481-0.475-1.24-0.466-1.867
	c0.045-3.664,0.003-7.338,0.293-10.986c0.348-4.377,0.883-12.417,3.133-12.542c3.76-0.209,9.498,0.056,12.562-2.062
	c4.027-2.783,5.697-6.635,5.292-11.53c-0.27-3.264-1.853-5.857-5-6.835C33.988,3.8,29.087,4.55,23.865,10.415
	c-2.059,2.311-1.564,1.835-3.043,4.617c-1.532,2.883-2.689,4.087-5.948,2.996c-1.131-0.38-5.447-2.399-6.028-1.034
	c-0.344,0.808,0.246,2.122,0.664,3.103c0.231,0.544,5.415,3.246,5.985,3.567c2.022,1.137,1.492,1.722,1.167,3.958
	c-0.501,3.449-2.205,15.085-2.516,18.562c-0.126,1.414-0.729,2.008-2.171,2.108c-2.135,0.151-4.354,0.217-6.356,0.869
	c-3.418,1.114-4.42,2.871-4.373,6.399c0.048,3.568,1.567,5.701,4.689,6.853c3.385,1.248,6.818,0.879,9.62-0.935
	c3.485-2.254,6.386-2.149,10.057-0.453c4.302,1.988,8.783,1.195,12.888-1.27c0.757-0.453,1.566-0.822,3.393-1.771
	c-0.855,1.746-1.012,2.72-1.538,3.002c-1.153,0.621-2.508,0.857-3.758,1.312c-2.967,1.08-6.081,1.895-8.844,3.367
	c-4.97,2.646-5.4,8.396-1.158,11.998c5.737,4.871,15.921,2.959,19.358-3.746c1.131-2.207,1.744-4.674,2.77-6.941
	c0.512-1.133,1.218-2.369,2.19-3.063c3.221-2.297,6.603-4.371,10.056-6.615c2.469,3.222,5.827,4.64,9.874,4.929
	c4.252,0.303,7.162-1.97,9.86-4.779c3.604,5.428,4.663,5.744,10.3,2.977c2.345-1.152,4.604-2.48,7.044-3.803
	c2.369,3.832,5.768,5.723,10.367,5.717c4.591-0.004,8.172-2.066,11.437-5.201c0.541,0.846,0.877,1.41,1.252,1.949
	c2.151,3.102,3.12,3.629,6.65,2.43c2.477-0.844,4.785-2.229,7.084-3.521c1.063-0.601,1.927-1.56,3.045-2.492
	c0.307,1.847,0.441,3.338,0.823,4.767c0.428,1.598,1.549,2.532,3.288,2.489c3.408-0.084,5.962-2.475,6.129-5.92
	c0.126-2.592,0.024-5.192,0.024-7.789c2.408,2.918,3.948,6.043,5.9,8.886c2.914,4.237,6.622,5.284,11.31,3.188
	c2.354-1.055,4.439-2.713,6.652-4.1c5.698,7.562,15.671,6.867,21.824-0.041c0.13,0.102,0.299,0.178,0.384,0.311
	c0.271,0.418,0.506,0.859,0.759,1.289c2.163,3.68,3.105,3.947,7.303,2.883c4.245-1.078,7.197-4.004,10.417-7.027
	c1.889,3.267,4.273,5.662,7.796,6.783c5.334,1.699,10.229,0.963,14.563-2.557c1.59-1.293,2.569-1.436,4.115,0.141
	c1.217,1.24,2.966,2.428,4.621,2.668c3.237,0.476,6.604,0.586,9.863,0.273c4.713-0.453,8.66-2.889,12.189-6.219
	c0.388,1.963,0.569,3.625,1.062,5.188c0.581,1.846,1.753,2.533,3.854,1.863c5.214-1.666,6.263-3.193,5.194-8.357
	c-0.103-0.488-0.345-0.951-0.403-1.44c-0.712-5.91,1.771-10.638,5.575-14.85c0.315-0.351,0.817-0.565,1.27-0.76
	c2.517-1.088,4.415,0.167,4.211,2.895c-0.11,1.48-0.611,2.928-0.856,4.403c-0.676,4.076-1.803,8.097-0.771,12.318
	c1.205,4.916,3.743,6.422,8.334,4.397c2.971-1.309,5.789-2.961,8.646-4.442c6.032,7.516,12.939,7.674,21.756,0.573
	c0.306,0.367,0.648,0.709,0.911,1.104c2.658,4.031,3.722,4.558,8.198,2.771c2.859-1.141,5.47-2.912,8.211-4.409
	c0.007-0.004,1.914,2.048,2.12,2.226c0.776,0.668,1.643,1.22,2.565,1.66c2.901,1.385,6.202,1.655,9.36,1.266
	c3.143-0.388,6.284-1.304,9.15-2.646c0.803-0.377,1.59-0.787,2.354-1.237c0.872-0.514,1.726-1.058,2.558-1.635
	c1.485,6.517,2.947,7.686,6.857,6.02c2.782-1.187,3.422-3.322,3.053-6.1c-0.574-4.33-0.196-8.587,0.735-12.877
	c0.602-2.771,2.438-3.112,4.358-2.649c2.615,0.633,0.627,2.441,0.317,3.562c-0.993,3.587-1.423,7.205-1.044,10.881
	c0.593,5.762,4.301,8.007,9.881,6.327c2.663-0.801,4.388-2.924,6.724-4.307c1.448,2.177,0.34,6.762,5.329,5.345
	c4.862-1.38,6.371-3.388,4.975-8.302c-1.548-5.444,0.694-9.767,3.338-14.066c1.275-2.074,3.092-4.002,5.686-2.895
	c2.697,1.151,1.422,3.774,1.021,5.753c-0.927,4.586-1.908,9.131-1.058,13.849c0.53,2.939,1.96,4.985,5.135,5.198
	c5.195,0.348,14.015-6.549,14.876-11.622C439.543,49.255,440.009,47.546,438.879,46.777z M350.981,41.962
	c0.331-2.754,1.373-4.316,2.912-5.57c0.597-0.486,2.236-0.892,3.02-0.512c1.379,0.667,0.812,2.209,0.032,2.975
	c-1.511,1.482-3.845,3.097-5.521,4.411C351.095,43.547,350.814,43.021,350.981,41.962z M247.286,41.66
	c0.504-2.044,0.781-4.263,2.763-5.534c0.672-0.432,2.16-0.588,2.575-0.172c0.505,0.506,0.7,2.145,0.277,2.603
	c-1.399,1.521-3.871,3.128-5.479,4.458C247.234,42.615,247.188,42.156,247.286,41.66z M31.122,13.203
	c2.105-1.837,4.462-2.039,5.806-0.58c1.336,1.45,1.003,3.978-0.946,5.759c-2.5,2.285-4.9,1.163-8.63,1.381
	C27.948,16.134,28.502,15.489,31.122,13.203z M36.442,73.721c-0.444,0.588-1.319,1.027-2.069,1.172
	c-1.403,0.269-4.292-1.52-3.892-2.289c0.511-0.979,1.748-1.651,2.792-2.25c0.838-0.479,1.85-0.668,2.792-0.959
	c0.786-0.242,1.583-0.446,3.741-1.051C38.305,70.787,37.486,72.34,36.442,73.721z M119.217,47.426
	c-0.536,3.254-2.409,5.768-5.699,6.973c-3.318,1.216-5.853,0.004-5.996-3.502c-0.104-2.547,0.457-5.332,1.492-7.668
	c2.126-4.796,6.198-7.458,11.603-9.019C120.139,38.944,119.909,43.223,119.217,47.426z M149.595,45.018
	c1.176-3.229,2.654-5.716,5.111-7.491c1.286-0.93,2.87-1.275,4.023,0.059c1.129,1.306,0.665,2.791-0.445,4
	C156.029,44.039,153.073,44.639,149.595,45.018z M193.33,46.904c-0.372,3.195-2.151,5.57-4.842,7.16
	c-3.742,2.211-7.241,0.309-7.066-4.072c0.103-2.561,0.854-5.285,2.032-7.567c2.22-4.305,5.995-6.877,11.176-8.042
	C194.156,38.996,193.79,42.956,193.33,46.904z M219.395,35.701c2.081-10.221,4.626-17.867,9.894-23.619
	c0.781-0.854,2.21-1.389,3.426-0.947c0.649,1.575,0.389,3.258-0.105,4.438c-1.103,2.635-2.509,5.131-4.043,7.41
	C225.962,26.847,223.166,30.503,219.395,35.701z M322.985,48.168c-0.477,2.631-2.264,4.766-4.84,5.992
	c-3.788,1.805-6.601,0.221-6.811-4.033c-0.178-3.592,0.948-6.861,3.225-9.687c2.436-3.026,4.554-4.359,9.907-5.995
	C323.969,39.373,323.772,43.824,322.985,48.168z"/>
</svg>
